<?xml version="1.0" standalone="no"?><!DOCTYPE svg PUBLIC "-//W3C//DTD SVG 1.1//EN" "http://www.w3.org/Graphics/SVG/1.1/DTD/svg11.dtd"><svg t="1587785001370" class="icon" viewBox="0 0 1024 1024" version="1.1" xmlns="http://www.w3.org/2000/svg" p-id="5028" data-spm-anchor-id="a313x.7781069.0.i11" xmlns:xlink="http://www.w3.org/1999/xlink" width="128" height="128"><defs><style type="text/css"></style></defs><path d="M848.08 814.42H175.92a80.16 80.16 0 0 1-80.07-80.07V228.06a18.48 18.48 0 0 1 18.48-18.48h795.34a18.48 18.48 0 0 1 18.48 18.48v506.29a80.16 80.16 0 0 1-80.07 80.07zM132.8 246.54v487.81a43.17 43.17 0 0 0 43.11 43.11h672.17a43.17 43.17 0 0 0 43.11-43.11V246.54z" fill="#6273da" p-id="5029"></path><path d="M512 601.47a18.4 18.4 0 0 1-12.08-4.5l-337-291.27a18.47 18.47 0 1 1 24.16-28L512 558.53 837.71 275A18.47 18.47 0 1 1 862 302.87L524.13 596.93a18.42 18.42 0 0 1-12.13 4.54z" fill="#fb6a2c" p-id="5030" data-spm-anchor-id="a313x.7781069.0.i12" class="selected"></path></svg>