<?xml version="1.0" standalone="no"?><!DOCTYPE svg PUBLIC "-//W3C//DTD SVG 1.1//EN" "http://www.w3.org/Graphics/SVG/1.1/DTD/svg11.dtd"><svg t="1589804664254" class="icon" viewBox="0 0 1024 1024" version="1.1" xmlns="http://www.w3.org/2000/svg" p-id="3312" data-spm-anchor-id="a313x.7781069.0.i11" xmlns:xlink="http://www.w3.org/1999/xlink" width="128" height="128"><defs><style type="text/css"></style></defs><path d="M622.262857 159.597714l-384 292.571429a29.257143 29.257143 0 0 0 0 46.518857l384 292.571429 2.011429 1.462857A29.257143 29.257143 0 0 0 669.257143 768v-147.090286h50.432l4.937143 0.073143a174.445714 174.445714 0 0 1 169.472 169.874286l0.073143 4.937143c0.512 38.765714 58.514286 38.4 58.514285-0.365715v-146.285714l-0.036571-5.997714a321.901714 321.901714 0 0 0-276.004572-312.612572l-7.387428-0.950857V182.857143a29.257143 29.257143 0 0 0-46.994286-23.259429zM304.274286 475.428571L610.742857 241.883429v114.834285a29.257143 29.257143 0 0 0 28.379429 29.257143l5.814857 0.219429a263.314286 263.314286 0 0 1 248.978286 251.318857l0.109714 3.401143-0.438857-0.512a232.265143 232.265143 0 0 0-167.826286-77.897143l-5.705143-0.073143H640l-2.669714 0.109714a29.257143 29.257143 0 0 0-26.587429 29.110857v117.284572L304.274286 475.428571z" p-id="3313" data-spm-anchor-id="a313x.7781069.0.i9" class="" fill="#fb6a2c"></path><path d="M329.874286 260.022857l35.108571 46.811429L140.178286 475.428571l224.804571 168.594286-35.108571 46.811429-256-192a29.257143 29.257143 0 0 1-2.121143-45.056l2.121143-1.755429 256-192z" p-id="3314" data-spm-anchor-id="a313x.7781069.0.i10" class="selected" fill="#6273da"></path></svg>