<?xml version="1.0" standalone="no"?><!DOCTYPE svg PUBLIC "-//W3C//DTD SVG 1.1//EN" "http://www.w3.org/Graphics/SVG/1.1/DTD/svg11.dtd"><svg t="1587785110532" class="icon" viewBox="0 0 1030 1024" version="1.1" xmlns="http://www.w3.org/2000/svg" p-id="6680" data-spm-anchor-id="a313x.7781069.0.i30" xmlns:xlink="http://www.w3.org/1999/xlink" width="128.75" height="128"><defs><style type="text/css"></style></defs><path d="M601.778712 1024l-87.818646-112.876745-86.896262 111.954361-17.486864-3.497373a487.864285 487.864285 0 0 1-139.472151-51.346044l-15.56523-8.532052 5.034679-141.201622-137.819547 29.67002-11.10704-14.104789a510.539559 510.539559 0 0 1-74.482511-128.749437L29.593154 688.713406l94.429065-104.498423L0 518.456688l0.461192-17.832758a504.428764 504.428764 0 0 1 25.826753-146.928089l5.649602-16.948806 139.087825-19.216334-52.844919-130.017715 11.529801-13.374568a495.781414 495.781414 0 0 1 113.414802-96.08167l15.373067-9.377571 119.909924 75.135866L422.029125 8.64735l17.525296-2.805584a513.037682 513.037682 0 0 1 148.426963-0.384327l17.755893 2.574989 43.736376 135.667317 121.677826-76.442576 15.373067 9.646599a526.527548 526.527548 0 0 1 112.184957 94.582796l11.95256 13.374568-53.805735 132.708002 141.893409 19.715958 5.688035 16.833509a489.709053 489.709053 0 0 1 25.903618 145.429215l0.461192 17.87119-126.904669 66.834409 96.504429 106.535355-6.76415 16.718211a506.004504 506.004504 0 0 1-74.05975 127.096832l-11.145474 13.951059-140.087074-30.092779 5.419006 142.892659-15.718961 8.532052a506.542561 506.542561 0 0 1-138.549767 50.462093z m-87.857079-206.844618l111.07041 142.738928a450.04654 450.04654 0 0 0 89.817145-32.475604l-6.802582-180.864135 177.289896 38.048341a448.701396 448.701396 0 0 0 47.925537-82.130611l-121.831557-134.514337 160.456388-84.820897a429.331332 429.331332 0 0 0-16.718211-93.852575l-179.518991-24.981234 67.948957-167.566432a466.76475 466.76475 0 0 0-72.791473-61.492268l-153.42321 96.427563-55.304609-171.794025a463.959165 463.959165 0 0 0-96.081669 0.230596l-55.343042 171.524997L258.651854 136.397538a435.173097 435.173097 0 0 0-73.521693 62.37622l67.257168 165.260471-176.790272 24.558475a448.393935 448.393935 0 0 0-16.833508 95.543612l157.573938 83.591052-119.525597 132.746435a453.851374 453.851374 0 0 0 48.502027 83.667917l174.676475-37.625581-6.34139 179.403693a432.790272 432.790272 0 0 0 90.201471 33.321123z" fill="#6273da" p-id="6681" data-spm-anchor-id="a313x.7781069.0.i29" class="selected"></path><path d="M520.839514 700.012611a189.088725 189.088725 0 1 1 189.050292-189.088726 189.280889 189.280889 0 0 1-189.050292 189.088726z m0-320.490017a131.439724 131.439724 0 1 0 131.401291 131.401291 131.555022 131.555022 0 0 0-131.401291-131.401291z" fill="#fb6a2c" p-id="6682" data-spm-anchor-id="a313x.7781069.0.i31" class=""></path></svg>